<svg width="335" height="50" viewBox="0 0 335 50" fill="none" xmlns="http://www.w3.org/2000/svg">
<path d="M83.4688 40C83.2288 40 83.0128 39.916 82.8208 39.748C82.6528 39.58 82.5688 39.364 82.5688 39.1V15.7C82.5688 15.436 82.6528 15.22 82.8208 15.052C83.0128 14.884 83.2288 14.8 83.4688 14.8H87.3568C87.7408 14.8 88.0288 14.908 88.2208 15.124C88.4368 15.316 88.5688 15.472 88.6168 15.592L94.9528 26.968L101.289 15.592C101.361 15.472 101.481 15.316 101.649 15.124C101.841 14.908 102.141 14.8 102.549 14.8H106.401C106.665 14.8 106.881 14.884 107.049 15.052C107.241 15.22 107.337 15.436 107.337 15.7V39.1C107.337 39.364 107.241 39.58 107.049 39.748C106.881 39.916 106.665 40 106.401 40H102.117C101.853 40 101.625 39.916 101.433 39.748C101.265 39.58 101.181 39.364 101.181 39.1V25.6L97.1128 33.124C97.0168 33.34 96.8728 33.532 96.6808 33.7C96.4888 33.868 96.2248 33.952 95.8888 33.952H94.0168C93.6808 33.952 93.4168 33.868 93.2248 33.7C93.0328 33.532 92.8768 33.34 92.7568 33.124L88.6888 25.6V39.1C88.6888 39.364 88.6048 39.58 88.4368 39.748C88.2688 39.916 88.0528 40 87.7888 40H83.4688ZM115.442 46.84C115.226 46.84 115.046 46.768 114.902 46.624C114.758 46.48 114.686 46.3 114.686 46.084C114.686 46.036 114.686 45.964 114.686 45.868C114.71 45.796 114.746 45.712 114.794 45.616L117.602 38.848L110.69 22.504C110.618 22.336 110.582 22.192 110.582 22.072C110.63 21.856 110.726 21.676 110.87 21.532C111.014 21.364 111.194 21.28 111.41 21.28H115.514C115.826 21.28 116.054 21.364 116.198 21.532C116.366 21.676 116.474 21.844 116.522 22.036L120.662 32.512L124.874 22.036C124.97 21.844 125.09 21.676 125.234 21.532C125.402 21.364 125.642 21.28 125.954 21.28H129.986C130.202 21.28 130.382 21.364 130.526 21.532C130.694 21.676 130.778 21.844 130.778 22.036C130.778 22.156 130.742 22.312 130.67 22.504L120.482 46.084C120.41 46.276 120.29 46.444 120.122 46.588C119.954 46.756 119.714 46.84 119.402 46.84H115.442ZM141.477 40C141.237 40 141.021 39.916 140.829 39.748C140.661 39.58 140.577 39.364 140.577 39.1V15.7C140.577 15.436 140.661 15.22 140.829 15.052C141.021 14.884 141.237 14.8 141.477 14.8H145.365C145.749 14.8 146.037 14.908 146.229 15.124C146.445 15.316 146.577 15.472 146.625 15.592L152.961 26.968L159.297 15.592C159.369 15.472 159.489 15.316 159.657 15.124C159.849 14.908 160.149 14.8 160.557 14.8H164.409C164.673 14.8 164.889 14.884 165.057 15.052C165.249 15.22 165.345 15.436 165.345 15.7V39.1C165.345 39.364 165.249 39.58 165.057 39.748C164.889 39.916 164.673 40 164.409 40H160.125C159.861 40 159.633 39.916 159.441 39.748C159.273 39.58 159.189 39.364 159.189 39.1V25.6L155.121 33.124C155.025 33.34 154.881 33.532 154.689 33.7C154.497 33.868 154.233 33.952 153.897 33.952H152.025C151.689 33.952 151.425 33.868 151.233 33.7C151.041 33.532 150.885 33.34 150.765 33.124L146.697 25.6V39.1C146.697 39.364 146.613 39.58 146.445 39.748C146.277 39.916 146.061 40 145.797 40H141.477ZM178.814 40.36C176.798 40.36 175.094 40.036 173.702 39.388C172.334 38.74 171.278 37.816 170.534 36.616C169.814 35.392 169.406 33.94 169.31 32.26C169.286 31.78 169.274 31.24 169.274 30.64C169.274 30.016 169.286 29.476 169.31 29.02C169.406 27.316 169.838 25.864 170.606 24.664C171.374 23.464 172.442 22.54 173.81 21.892C175.202 21.244 176.87 20.92 178.814 20.92C180.782 20.92 182.45 21.244 183.818 21.892C185.21 22.54 186.29 23.464 187.058 24.664C187.826 25.864 188.258 27.316 188.354 29.02C188.378 29.476 188.39 30.016 188.39 30.64C188.39 31.24 188.378 31.78 188.354 32.26C188.258 33.94 187.838 35.392 187.094 36.616C186.374 37.816 185.318 38.74 183.926 39.388C182.558 40.036 180.854 40.36 178.814 40.36ZM178.814 35.968C179.894 35.968 180.674 35.644 181.154 34.996C181.658 34.348 181.946 33.376 182.018 32.08C182.042 31.72 182.054 31.24 182.054 30.64C182.054 30.04 182.042 29.56 182.018 29.2C181.946 27.928 181.658 26.968 181.154 26.32C180.674 25.648 179.894 25.312 178.814 25.312C177.758 25.312 176.978 25.648 176.474 26.32C175.97 26.968 175.694 27.928 175.646 29.2C175.622 29.56 175.61 30.04 175.61 30.64C175.61 31.24 175.622 31.72 175.646 32.08C175.694 33.376 175.97 34.348 176.474 34.996C176.978 35.644 177.758 35.968 178.814 35.968ZM192.831 40C192.567 40 192.351 39.916 192.183 39.748C192.015 39.58 191.931 39.364 191.931 39.1V22.18C191.931 21.916 192.015 21.7 192.183 21.532C192.351 21.364 192.567 21.28 192.831 21.28H196.971C197.235 21.28 197.451 21.364 197.619 21.532C197.787 21.7 197.871 21.916 197.871 22.18V23.548C198.495 22.804 199.311 22.18 200.319 21.676C201.327 21.172 202.515 20.92 203.883 20.92C205.275 20.92 206.499 21.232 207.555 21.856C208.635 22.48 209.475 23.404 210.075 24.628C210.699 25.828 211.011 27.304 211.011 29.056V39.1C211.011 39.364 210.915 39.58 210.723 39.748C210.555 39.916 210.351 40 210.111 40H205.575C205.335 40 205.119 39.916 204.927 39.748C204.759 39.58 204.675 39.364 204.675 39.1V29.272C204.675 28.144 204.399 27.28 203.847 26.68C203.319 26.056 202.527 25.744 201.471 25.744C200.487 25.744 199.695 26.056 199.095 26.68C198.519 27.28 198.231 28.144 198.231 29.272V39.1C198.231 39.364 198.135 39.58 197.943 39.748C197.775 39.916 197.571 40 197.331 40H192.831ZM223.668 40.36C220.836 40.36 218.58 39.592 216.9 38.056C215.22 36.52 214.344 34.24 214.272 31.216C214.272 31.048 214.272 30.832 214.272 30.568C214.272 30.304 214.272 30.1 214.272 29.956C214.344 28.06 214.764 26.44 215.532 25.096C216.324 23.728 217.404 22.696 218.772 22C220.164 21.28 221.784 20.92 223.632 20.92C225.744 20.92 227.484 21.34 228.852 22.18C230.244 23.02 231.288 24.16 231.984 25.6C232.68 27.04 233.028 28.684 233.028 30.532V31.396C233.028 31.66 232.932 31.876 232.74 32.044C232.572 32.212 232.368 32.296 232.128 32.296H220.608C220.608 32.32 220.608 32.356 220.608 32.404C220.608 32.452 220.608 32.5 220.608 32.548C220.632 33.244 220.752 33.88 220.968 34.456C221.184 35.032 221.52 35.488 221.976 35.824C222.432 36.16 222.984 36.328 223.632 36.328C224.112 36.328 224.508 36.256 224.82 36.112C225.156 35.944 225.432 35.764 225.648 35.572C225.864 35.356 226.032 35.176 226.152 35.032C226.368 34.792 226.536 34.648 226.656 34.6C226.8 34.528 227.016 34.492 227.304 34.492H231.768C232.008 34.492 232.2 34.564 232.344 34.708C232.512 34.828 232.584 35.008 232.56 35.248C232.536 35.656 232.332 36.148 231.948 36.724C231.564 37.3 231 37.876 230.256 38.452C229.536 39.004 228.624 39.46 227.52 39.82C226.416 40.18 225.132 40.36 223.668 40.36ZM220.608 28.732H226.692V28.66C226.692 27.892 226.572 27.22 226.332 26.644C226.116 26.068 225.768 25.624 225.288 25.312C224.832 25 224.28 24.844 223.632 24.844C222.984 24.844 222.432 25 221.976 25.312C221.544 25.624 221.208 26.068 220.968 26.644C220.728 27.22 220.608 27.892 220.608 28.66V28.732ZM239.087 46.84C238.871 46.84 238.691 46.768 238.547 46.624C238.403 46.48 238.331 46.3 238.331 46.084C238.331 46.036 238.331 45.964 238.331 45.868C238.355 45.796 238.391 45.712 238.439 45.616L241.247 38.848L234.335 22.504C234.263 22.336 234.227 22.192 234.227 22.072C234.275 21.856 234.371 21.676 234.515 21.532C234.659 21.364 234.839 21.28 235.055 21.28H239.159C239.471 21.28 239.699 21.364 239.843 21.532C240.011 21.676 240.119 21.844 240.167 22.036L244.307 32.512L248.519 22.036C248.615 21.844 248.735 21.676 248.879 21.532C249.047 21.364 249.287 21.28 249.599 21.28H253.631C253.847 21.28 254.027 21.364 254.171 21.532C254.339 21.676 254.423 21.844 254.423 22.036C254.423 22.156 254.387 22.312 254.315 22.504L244.127 46.084C244.055 46.276 243.935 46.444 243.767 46.588C243.599 46.756 243.359 46.84 243.047 46.84H239.087Z" fill="white"/>
<path d="M53.9993 4.06374C55.1241 3.37169 56.5426 3.37169 57.6674 4.06374L69.9522 11.6222C70.9875 12.2591 71.6181 13.3876 71.6181 14.6031V30.3969C71.6181 31.6124 70.9875 32.7409 69.9522 33.3779L57.6674 40.9363C56.5426 41.6283 55.1241 41.6283 53.9993 40.9363L41.7145 33.3778C40.6792 32.7409 40.0486 31.6124 40.0486 30.3969V14.6031C40.0486 13.3876 40.6792 12.2591 41.7145 11.6221L53.9993 4.06374Z" stroke="#000A4A" stroke-width="5"/>
<path d="M53.9992 9.06374C55.124 8.37169 56.5426 8.37169 57.6674 9.06374L65.8889 14.1221C66.9242 14.7591 67.5548 15.8876 67.5548 17.1031V27.8969C67.5548 29.1124 66.9242 30.2409 65.8889 30.8779L57.6674 35.9363C56.5426 36.6283 55.124 36.6283 53.9992 35.9363L52.6892 38.0655L53.9992 35.9363L45.7777 30.8779C44.7425 30.2409 44.1118 29.1124 44.1118 27.8969V17.1031C44.1118 15.8876 44.7425 14.7591 45.7777 14.1221L53.9992 9.06374Z" stroke="white" stroke-width="5"/>
</svg>
